<?xml version="1.0" encoding="utf-8"?>
<!-- Generator: Adobe Illustrator 23.0.0, SVG Export Plug-In . SVG Version: 6.00 Build 0)  -->
<svg version="1.1" xmlns="http://www.w3.org/2000/svg" xmlns:xlink="http://www.w3.org/1999/xlink" width="150.477px" height="50.564px"
	 viewBox="0 0 150.5 50.5" style="enable-background:new 0 0 150.5 50.5;" xml:space="preserve">
<style type="text/css">
	.st0{fill:#0B5686;}
	.st1{fill:#64C3ED;}
	.st2{fill:#FFFFFF;}
	.st3{fill:#79CBA7;}
	.st4{fill:#FF8500;}
	.st5{fill:#141A1C;}
	.st6{opacity:0.5;}
	.st7{fill:#286CC2;}
	.st8{fill:#BE7C1C;}
	.st9{fill:#292C2B;}
	.st10{fill:#EFF7FA;}
	.st11{fill:#B5B5B5;}
	.st12{opacity:0.25;}
</style>
<g id="Layer_2">
	<rect y="-0.1" transform="matrix(-1 4.489552e-11 -4.489552e-11 -1 150.4759 50.3927)" class="st0" width="150.5" height="50.6"/>
	<g>
		<rect x="25.6" y="1.9" class="st1" width="58.9" height="46.6"/>
		<path class="st2" d="M84.1,2.4V48H26.1V2.4H84.1 M85.1,1.4h-1H26.1h-1v1V48v1h1h57.9h1v-1V2.4V1.4L85.1,1.4z"/>
	</g>
	<g>
		<rect x="1.8" y="11.3" class="st3" width="18.2" height="27.7"/>
		<g>
			<path class="st4" d="M8.9,36.6c-2.2,0-4-1.8-4-4c0-2.2,1.8-4,4-4s4,1.8,4,4C12.9,34.8,11.1,36.6,8.9,36.6z"/>
			<path class="st5" d="M8.9,29c1.9,0,3.5,1.6,3.5,3.5s-1.6,3.5-3.5,3.5s-3.5-1.6-3.5-3.5S6.9,29,8.9,29 M8.9,28
				c-2.5,0-4.5,2-4.5,4.5s2,4.5,4.5,4.5s4.5-2,4.5-4.5S11.4,28,8.9,28L8.9,28z"/>
		</g>
		<g>
			<path class="st4" d="M8.9,22.1c-2.2,0-4-1.8-4-4c0-2.2,1.8-4,4-4s4,1.8,4,4C12.9,20.3,11.1,22.1,8.9,22.1z"/>
			<path class="st5" d="M8.9,14.5c1.9,0,3.5,1.6,3.5,3.5c0,1.9-1.6,3.5-3.5,3.5S5.4,20,5.4,18.1C5.4,16.1,6.9,14.5,8.9,14.5
				 M8.9,13.5c-2.5,0-4.5,2-4.5,4.5c0,2.5,2,4.5,4.5,4.5s4.5-2,4.5-4.5C13.4,15.6,11.4,13.5,8.9,13.5L8.9,13.5z"/>
		</g>
		<path class="st6" d="M4.5,24.9h8.8c0.3,0,0.6,0.3,0.6,0.6v0c0,0.3-0.3,0.6-0.6,0.6H4.5C4.2,26,4,25.7,4,25.4v0
			C4,25.1,4.2,24.9,4.5,24.9z"/>
		<path class="st6" d="M17.2,32.2h1.5c0.2,0,0.4,0.2,0.4,0.4l0,0c0,0.2-0.2,0.4-0.4,0.4h-1.5c-0.2,0-0.4-0.2-0.4-0.4l0,0
			C16.8,32.3,17,32.2,17.2,32.2z"/>
		<path class="st6" d="M17.2,17.7h1.5c0.2,0,0.4,0.2,0.4,0.4v0c0,0.2-0.2,0.4-0.4,0.4h-1.5c-0.2,0-0.4-0.2-0.4-0.4v0
			C16.8,17.8,17,17.7,17.2,17.7z"/>
	</g>
	<g>
		<g>
			<rect x="87.4" y="31.7" class="st7" width="35.2" height="16.8"/>
			<path class="st2" d="M122,32.2V48H87.9V32.2H122 M123,31.2h-1H87.9h-1v1V48v1h1H122h1v-1V32.2V31.2L123,31.2z"/>
		</g>
		<circle class="st8" cx="116.2" cy="42.5" r="3.5"/>
	</g>
	<g>
		<rect x="106.3" y="18.8" class="st9" width="17" height="11"/>
		<rect x="123.3" y="26.2" class="st10" width="4.3" height="2.1"/>
		<rect x="123.3" y="20.1" class="st10" width="4.3" height="2.1"/>
		<rect x="102" y="26.2" class="st10" width="4.3" height="2.1"/>
		<rect x="102" y="20.1" class="st10" width="4.3" height="2.1"/>
	</g>
	<g>
		<g>
			<path class="st2" d="M147.3,9.1v31.4h-6.9V9.1H147.3 M148.3,8.1h-1h-6.9h-1v1v31.4v1h1h6.9h1v-1V9.1V8.1L148.3,8.1z"/>
		</g>
		<g>
			<path class="st10" d="M144,38.8c-1.1,0-2-0.9-2-2s0.9-2,2-2s2,0.9,2,2S145.1,38.8,144,38.8z"/>
			<path class="st11" d="M144,35.2c0.9,0,1.6,0.7,1.6,1.6c0,0.9-0.7,1.6-1.6,1.6c-0.9,0-1.6-0.7-1.6-1.6
				C142.4,36,143.1,35.2,144,35.2 M144,34.5c-1.3,0-2.4,1.1-2.4,2.4s1.1,2.4,2.4,2.4s2.4-1.1,2.4-2.4S145.3,34.5,144,34.5L144,34.5z
				"/>
		</g>
		<g>
			<path class="st10" d="M144,30.8c-1.1,0-2-0.9-2-2s0.9-2,2-2s2,0.9,2,2S145.1,30.8,144,30.8z"/>
			<path class="st11" d="M144,27.2c0.9,0,1.6,0.7,1.6,1.6s-0.7,1.6-1.6,1.6c-0.9,0-1.6-0.7-1.6-1.6S143.1,27.2,144,27.2 M144,26.5
				c-1.3,0-2.4,1.1-2.4,2.4s1.1,2.4,2.4,2.4s2.4-1.1,2.4-2.4S145.3,26.5,144,26.5L144,26.5z"/>
		</g>
		<g>
			<path class="st10" d="M144,22.8c-1.1,0-2-0.9-2-2s0.9-2,2-2s2,0.9,2,2S145.1,22.8,144,22.8z"/>
			<path class="st11" d="M144,19.2c0.9,0,1.6,0.7,1.6,1.6c0,0.9-0.7,1.6-1.6,1.6c-0.9,0-1.6-0.7-1.6-1.6
				C142.4,20,143.1,19.2,144,19.2 M144,18.5c-1.3,0-2.4,1.1-2.4,2.4s1.1,2.4,2.4,2.4s2.4-1.1,2.4-2.4S145.3,18.5,144,18.5L144,18.5z
				"/>
		</g>
		<g>
			<path class="st10" d="M144,14.9c-1.1,0-2-0.9-2-2s0.9-2,2-2s2,0.9,2,2S145.1,14.9,144,14.9z"/>
			<path class="st11" d="M144,11.3c0.9,0,1.6,0.7,1.6,1.6c0,0.9-0.7,1.6-1.6,1.6c-0.9,0-1.6-0.7-1.6-1.6
				C142.4,12,143.1,11.3,144,11.3 M144,10.5c-1.3,0-2.4,1.1-2.4,2.4s1.1,2.4,2.4,2.4s2.4-1.1,2.4-2.4S145.3,10.5,144,10.5L144,10.5z
				"/>
		</g>
	</g>
	<circle class="st2" cx="146.2" cy="46.6" r="2.2"/>
	<circle class="st2" cx="146.2" cy="3.2" r="2.2"/>
	<circle class="st2" cx="4" cy="46.6" r="2.2"/>
	<circle class="st2" cx="4" cy="3.2" r="2.2"/>
</g>
<g id="Layer_1" class="st12">
</g>
</svg>
